<svg width="47" height="45" viewBox="0 0 47 45" fill="none" xmlns="http://www.w3.org/2000/svg">
<path d="M22.5489 3.39919C22.8483 2.47788 24.1517 2.47788 24.4511 3.39919L27.772 13.6201C28.4414 15.6802 30.3612 17.075 32.5273 17.075H43.2742C44.2429 17.075 44.6457 18.3146 43.862 18.884L35.1676 25.2008C33.4151 26.4741 32.6818 28.7309 33.3512 30.791L36.6722 41.0119C36.9715 41.9332 35.917 42.6993 35.1333 42.1299L26.4389 35.8131C24.6865 34.5399 22.3135 34.5399 20.5611 35.8131L11.8667 42.1299C11.083 42.6993 10.0285 41.9332 10.3278 41.0119L13.6488 30.791C14.3182 28.7309 13.5849 26.4741 11.8324 25.2008L3.13804 18.884C2.35433 18.3146 2.7571 17.075 3.72583 17.075H14.4727C16.6388 17.075 18.5586 15.6802 19.228 13.6201L22.5489 3.39919Z" stroke="#FBFBF2" stroke-width="4"/>
</svg>
